<svg id="Группа_1" data-name="Группа 1" xmlns="http://www.w3.org/2000/svg" width="80" height="80" viewBox="0 0 80 80">
  <metadata><?xpacket begin="﻿" id="W5M0MpCehiHzreSzNTczkc9d"?>
<x:xmpmeta xmlns:x="adobe:ns:meta/" x:xmptk="Adobe XMP Core 5.6-c138 79.159824, 2016/09/14-01:09:01        ">
   <rdf:RDF xmlns:rdf="http://www.w3.org/1999/02/22-rdf-syntax-ns#">
      <rdf:Description rdf:about=""/>
   </rdf:RDF>
</x:xmpmeta>
                                                                                                    
                                                                                                    
                                                                                                    
                                                                                                    
                                                                                                    
                                                                                                    
                                                                                                    
                                                                                                    
                                                                                                    
                                                                                                    
                                                                                                    
                                                                                                    
                                                                                                    
                                                                                                    
                                                                                                    
                                                                                                    
                                                                                                    
                                                                                                    
                                                                                                    
                                                                                                    
                           
<?xpacket end="w"?></metadata>
<defs>
    <style>
      .cls-1 {
        fill: none;
        stroke: #878787;
        stroke-width: 5.84px;
        fill-rule: evenodd;
      }
    </style>
  </defs>
  <path id="Прямоугольник_скругл._углы_1" data-name="Прямоугольник, скругл. углы 1" class="cls-1" d="M44,37H59.673a4,4,0,0,1,4,4V56.2a4,4,0,0,1-4,4H44a4,4,0,0,1-4-4V41A4,4,0,0,1,44,37Z" transform="translate(-31 -28.5)"/>
  <path id="Прямоугольник_скругл._углы_1_копия" data-name="Прямоугольник, скругл. углы 1 копия" class="cls-1" d="M82.327,37H98a4,4,0,0,1,4,4V56.2a4,4,0,0,1-4,4H82.327a4,4,0,0,1-4-4V41A4,4,0,0,1,82.327,37Z" transform="translate(-31 -28.5)"/>
  <path id="Прямоугольник_скругл._углы_1_копия_2" data-name="Прямоугольник, скругл. углы 1 копия 2" class="cls-1" d="M44,76.8H59.673a4,4,0,0,1,4,4V96a4,4,0,0,1-4,4H44a4,4,0,0,1-4-4V80.8A4,4,0,0,1,44,76.8Z" transform="translate(-31 -28.5)"/>
  <path id="Прямоугольник_скругл._углы_1_копия_3" data-name="Прямоугольник, скругл. углы 1 копия 3" class="cls-1" d="M82.327,76.8H98a4,4,0,0,1,4,4V96a4,4,0,0,1-4,4H82.327a4,4,0,0,1-4-4V80.8A4,4,0,0,1,82.327,76.8Z" transform="translate(-31 -28.5)"/>
</svg>
