<svg id="Группа_4" data-name="Группа 4" xmlns="http://www.w3.org/2000/svg" width="103" height="103" viewBox="0 0 103 103">
  <metadata><?xpacket begin="﻿" id="W5M0MpCehiHzreSzNTczkc9d"?>
<x:xmpmeta xmlns:x="adobe:ns:meta/" x:xmptk="Adobe XMP Core 5.6-c138 79.159824, 2016/09/14-01:09:01        ">
   <rdf:RDF xmlns:rdf="http://www.w3.org/1999/02/22-rdf-syntax-ns#">
      <rdf:Description rdf:about=""/>
   </rdf:RDF>
</x:xmpmeta>
                                                                                                    
                                                                                                    
                                                                                                    
                                                                                                    
                                                                                                    
                                                                                                    
                                                                                                    
                                                                                                    
                                                                                                    
                                                                                                    
                                                                                                    
                                                                                                    
                                                                                                    
                                                                                                    
                                                                                                    
                                                                                                    
                                                                                                    
                                                                                                    
                                                                                                    
                                                                                                    
                           
<?xpacket end="w"?></metadata>
<defs>
    <style>
      .cls-1 {
        fill: none;
        stroke: #878787;
        stroke-width: 6px;
      }

      .cls-2, .cls-3 {
        fill: #878787;
      }

      .cls-3 {
        fill-rule: evenodd;
      }
    </style>
  </defs>
  <rect id="Прямоугольник_скругл._углы_4" data-name="Прямоугольник, скругл. углы 4" class="cls-1" x="29" y="27.5" width="46" height="46" rx="10" ry="10"/>
  <rect id="Прямоугольник_1" data-name="Прямоугольник 1" class="cls-2" x="15" y="24.5" width="7" height="52" rx="2" ry="2"/>
  <rect id="Прямоугольник_1_копия" data-name="Прямоугольник 1 копия" class="cls-2" y="21.5" width="8" height="60" rx="2" ry="2"/>
  <path id="Прямоугольник_1_копия_2" data-name="Прямоугольник 1 копия 2" class="cls-3" d="M105,42h2.682a2,2,0,0,1,2,2V92a2,2,0,0,1-2,2H105a2,2,0,0,1-2-2V44A2,2,0,0,1,105,42Z" transform="translate(-21 -17.5)"/>
  <path id="Прямоугольник_1_копия_3" data-name="Прямоугольник 1 копия 3" class="cls-3" d="M118.364,39H122a2,2,0,0,1,2,2V97a2,2,0,0,1-2,2h-3.636a2,2,0,0,1-2-2V41A2,2,0,0,1,118.364,39Z" transform="translate(-21 -17.5)"/>
</svg>
